<?xml version="1.0" encoding="UTF-8" standalone="no"?>
<!-- Created with Inkscape (http://www.inkscape.org/) -->

<svg
   xmlns:dc="http://purl.org/dc/elements/1.1/"
   xmlns:cc="http://creativecommons.org/ns#"
   xmlns:rdf="http://www.w3.org/1999/02/22-rdf-syntax-ns#"
   xmlns:svg="http://www.w3.org/2000/svg"
   xmlns="http://www.w3.org/2000/svg"
   xmlns:sodipodi="http://sodipodi.sourceforge.net/DTD/sodipodi-0.dtd"
   xmlns:inkscape="http://www.inkscape.org/namespaces/inkscape"
   width="744.09448"
   height="80"
   id="svg2"
   version="1.1"
   inkscape:version="0.48.3.1 r9886"
   sodipodi:docname="distribucion.svg">
  <defs
     id="defs4" />
  <sodipodi:namedview
     id="base"
     pagecolor="#ffffff"
     bordercolor="#666666"
     borderopacity="1.0"
     inkscape:pageopacity="0.0"
     inkscape:pageshadow="2"
     inkscape:zoom="2.1631348"
     inkscape:cx="216.30741"
     inkscape:cy="167.2968"
     inkscape:document-units="px"
     inkscape:current-layer="layer1"
     showgrid="false"
     inkscape:window-width="1855"
     inkscape:window-height="1056"
     inkscape:window-x="65"
     inkscape:window-y="24"
     inkscape:window-maximized="1" />
  <metadata
     id="metadata7">
    <rdf:RDF>
      <cc:Work
         rdf:about="">
        <dc:format>image/svg+xml</dc:format>
        <dc:type
           rdf:resource="http://purl.org/dc/dcmitype/StillImage" />
        <dc:title />
      </cc:Work>
    </rdf:RDF>
  </metadata>
  <g
     inkscape:label="Capa 1"
     inkscape:groupmode="layer"
     id="layer1"
     transform="translate(0,-972.36218)">
    <path
       style="fill:none;stroke:#000000;stroke-width:1.03933203;stroke-linecap:butt;stroke-linejoin:miter;stroke-miterlimit:4;stroke-opacity:1;stroke-dasharray:none"
       d="m 50.253814,1011.8845 c 647.870056,0 647.870056,0 647.870056,0"
       id="path3004"
       inkscape:connector-curvature="0" />
    <path
       style="fill:none;stroke:#000000;stroke-width:1.03933203px;stroke-linecap:butt;stroke-linejoin:miter;stroke-opacity:1"
       d="m 373.54556,1004.0274 c 0,16.4285 0,16.4285 0,16.4285"
       id="path3776"
       inkscape:connector-curvature="0" />
    <path
       style="fill:none;stroke:#000000;stroke-width:0.90162164px;stroke-linecap:butt;stroke-linejoin:miter;stroke-opacity:1"
       d="m 409.53952,1005.4519 c 0,12.7745 0,12.7745 0,12.7745"
       id="path3778"
       inkscape:connector-curvature="0" />
    <path
       style="fill:none;stroke:#000000;stroke-width:0.85650134px;stroke-linecap:butt;stroke-linejoin:miter;stroke-opacity:1"
       d="m 488.44272,1005.0335 c 0,13.6239 0,13.6239 0,13.6239 l 0,0"
       id="path3782"
       inkscape:connector-curvature="0" />
    <path
       style="fill:none;stroke:#000000;stroke-width:0.85118616px;stroke-linecap:butt;stroke-linejoin:miter;stroke-opacity:1"
       d="m 679.53953,1005.482 c 0,12.9378 0,12.9378 0,12.9378 l 0,0"
       id="path3784"
       inkscape:connector-curvature="0" />
    <text
       xml:space="preserve"
       style="font-size:10px;font-style:normal;font-variant:normal;font-weight:normal;font-stretch:normal;text-align:start;line-height:125%;letter-spacing:0px;word-spacing:0px;writing-mode:lr-tb;text-anchor:start;fill:#000000;fill-opacity:1;stroke:none;font-family:Sans;-inkscape-font-specification:Sans"
       x="370.04147"
       y="1032.7498"
       id="text3786"
       sodipodi:linespacing="125%"><tspan
         sodipodi:role="line"
         id="tspan3788"
         x="370.04147"
         y="1032.7498">0</tspan></text>
    <text
       xml:space="preserve"
       style="font-size:10px;font-style:normal;font-variant:normal;font-weight:normal;font-stretch:normal;text-align:start;line-height:125%;letter-spacing:0px;word-spacing:0px;writing-mode:lr-tb;text-anchor:start;fill:#000000;fill-opacity:1;stroke:none;font-family:Sans;-inkscape-font-specification:Sans"
       x="404.38666"
       y="1031.7396"
       id="text3790"
       sodipodi:linespacing="125%"><tspan
         sodipodi:role="line"
         id="tspan3792"
         x="404.38666"
         y="1031.7396">1</tspan></text>
    <text
       xml:space="preserve"
       style="font-size:10px;font-style:normal;font-variant:normal;font-weight:normal;font-stretch:normal;text-align:start;line-height:125%;letter-spacing:0px;word-spacing:0px;writing-mode:lr-tb;text-anchor:start;fill:#000000;fill-opacity:1;stroke:none;font-family:Sans;-inkscape-font-specification:Sans"
       x="482.67346"
       y="1031.2345"
       id="text3794"
       sodipodi:linespacing="125%"><tspan
         sodipodi:role="line"
         id="tspan3796"
         x="482.67346"
         y="1031.2345">10</tspan></text>
    <text
       xml:space="preserve"
       style="font-size:10px;font-style:normal;font-variant:normal;font-weight:normal;font-stretch:normal;text-align:start;line-height:125%;letter-spacing:0px;word-spacing:0px;writing-mode:lr-tb;text-anchor:start;fill:#000000;fill-opacity:1;stroke:none;font-family:Sans;-inkscape-font-specification:Sans"
       x="670.56183"
       y="1031.7396"
       id="text3798"
       sodipodi:linespacing="125%"><tspan
         sodipodi:role="line"
         id="tspan3800"
         x="670.56183"
         y="1031.7396">100</tspan></text>
    <path
       style="fill:none;stroke:#000000;stroke-width:1.03729928px;stroke-linecap:butt;stroke-linejoin:miter;stroke-opacity:1"
       d="m 373.46387,1003.9739 c 0,16.4285 0,16.4285 0,16.4285"
       id="path3776-6"
       inkscape:connector-curvature="0" />
    <path
       style="fill:none;stroke:#000000;stroke-width:0.89985818px;stroke-linecap:butt;stroke-linejoin:miter;stroke-opacity:1"
       d="m 337.61057,1005.3984 c 0,12.7745 0,12.7745 0,12.7745"
       id="path3778-1"
       inkscape:connector-curvature="0" />
    <path
       style="fill:none;stroke:#000000;stroke-width:0.85482615px;stroke-linecap:butt;stroke-linejoin:miter;stroke-opacity:1"
       d="m 259.01572,1004.98 c 0,13.6239 0,13.6239 0,13.6239 l 0,0"
       id="path3782-7"
       inkscape:connector-curvature="0" />
    <path
       style="fill:none;stroke:#000000;stroke-width:0.84952134px;stroke-linecap:butt;stroke-linejoin:miter;stroke-opacity:1"
       d="m 68.665702,1005.4284 c 0,12.9379 0,12.9379 0,12.9379 l 0,0"
       id="path3784-1"
       inkscape:connector-curvature="0" />
    <text
       xml:space="preserve"
       style="font-size:10px;font-style:normal;font-variant:normal;font-weight:normal;font-stretch:normal;text-align:start;line-height:125%;letter-spacing:0px;word-spacing:0px;writing-mode:lr-tb;text-anchor:start;fill:#000000;fill-opacity:1;stroke:none;font-family:Sans;-inkscape-font-specification:Sans"
       x="331.92569"
       y="1031.5591"
       id="text3853"
       sodipodi:linespacing="125%"><tspan
         sodipodi:role="line"
         id="tspan3855"
         x="331.92569"
         y="1031.5591">-1</tspan></text>
    <text
       xml:space="preserve"
       style="font-size:10px;font-style:normal;font-variant:normal;font-weight:normal;font-stretch:normal;text-align:start;line-height:125%;letter-spacing:0px;word-spacing:0px;writing-mode:lr-tb;text-anchor:start;fill:#000000;fill-opacity:1;stroke:none;font-family:Sans;-inkscape-font-specification:Sans"
       x="250.56229"
       y="1032.4836"
       id="text3857"
       sodipodi:linespacing="125%"><tspan
         sodipodi:role="line"
         id="tspan3859"
         x="250.56229"
         y="1032.4836">-10</tspan></text>
    <text
       xml:space="preserve"
       style="font-size:10px;font-style:normal;font-variant:normal;font-weight:normal;font-stretch:normal;text-align:start;line-height:125%;letter-spacing:0px;word-spacing:0px;writing-mode:lr-tb;text-anchor:start;fill:#000000;fill-opacity:1;stroke:none;font-family:Sans;-inkscape-font-specification:Sans"
       x="56.399628"
       y="1031.0968"
       id="text3861"
       sodipodi:linespacing="125%"><tspan
         sodipodi:role="line"
         x="56.399628"
         y="1031.0968"
         id="tspan3865">-100</tspan></text>
    <path
       sodipodi:type="arc"
       style="fill:#0000e7;fill-opacity:0.8865546;stroke:#000000;stroke-width:1;stroke-miterlimit:4;stroke-opacity:0;stroke-dasharray:none;stroke-dashoffset:0"
       id="path3869"
       sodipodi:cx="143.54167"
       sodipodi:cy="299.05731"
       sodipodi:rx="30.280128"
       sodipodi:ry="39.52597"
       d="m 173.8218,299.05731 c 0,21.82959 -13.55688,39.52597 -30.28013,39.52597 -16.72325,0 -30.28013,-17.69638 -30.28013,-39.52597 0,-21.82959 13.55688,-39.52597 30.28013,-39.52597 16.72325,0 30.28013,17.69638 30.28013,39.52597 z"
       transform="matrix(0.06880636,0,0,0.05291398,399.9453,996.5496)" />
    <path
       sodipodi:type="arc"
       style="fill:#008080;fill-opacity:1;stroke:#000000;stroke-width:1;stroke-miterlimit:4;stroke-opacity:0;stroke-dasharray:none;stroke-dashoffset:0"
       id="path3869-4"
       sodipodi:cx="143.54167"
       sodipodi:cy="299.05731"
       sodipodi:rx="30.280128"
       sodipodi:ry="39.52597"
       d="m 173.8218,299.05731 c 0,21.82959 -13.55688,39.52597 -30.28013,39.52597 -16.72325,0 -30.28013,-17.69638 -30.28013,-39.52597 0,-21.82959 13.55688,-39.52597 30.28013,-39.52597 16.72325,0 30.28013,17.69638 30.28013,39.52597 z"
       transform="matrix(0.06880636,0,0,0.05291398,365.96684,996.31847)" />
    <path
       sodipodi:type="arc"
       style="fill:#0000ea;fill-opacity:0.91176468;stroke:#000000;stroke-width:1;stroke-miterlimit:4;stroke-opacity:0;stroke-dasharray:none;stroke-dashoffset:0"
       id="path3869-3"
       sodipodi:cx="143.54167"
       sodipodi:cy="299.05731"
       sodipodi:rx="30.280128"
       sodipodi:ry="39.52597"
       d="m 173.8218,299.05731 c 0,21.82959 -13.55688,39.52597 -30.28013,39.52597 -16.72325,0 -30.28013,-17.69638 -30.28013,-39.52597 0,-21.82959 13.55688,-39.52597 30.28013,-39.52597 16.72325,0 30.28013,17.69638 30.28013,39.52597 z"
       transform="matrix(0.06880636,0,0,0.05291398,370.58975,996.31846)" />
    <path
       sodipodi:type="arc"
       style="fill:#0000e7;fill-opacity:0.8865546;stroke:#000000;stroke-width:1;stroke-miterlimit:4;stroke-opacity:0;stroke-dasharray:none;stroke-dashoffset:0"
       id="path3869-30"
       sodipodi:cx="143.54167"
       sodipodi:cy="299.05731"
       sodipodi:rx="30.280128"
       sodipodi:ry="39.52597"
       d="m 173.8218,299.05731 c 0,21.82959 -13.55688,39.52597 -30.28013,39.52597 -16.72325,0 -30.28013,-17.69638 -30.28013,-39.52597 0,-21.82959 13.55688,-39.52597 30.28013,-39.52597 16.72325,0 30.28013,17.69638 30.28013,39.52597 z"
       transform="matrix(0.06880636,0,0,0.05291398,375.21268,996.31846)" />
    <path
       sodipodi:type="arc"
       style="fill:#0000e7;fill-opacity:0.8865546;stroke:#000000;stroke-width:1;stroke-miterlimit:4;stroke-opacity:0;stroke-dasharray:none;stroke-dashoffset:0"
       id="path3869-8"
       sodipodi:cx="143.54167"
       sodipodi:cy="299.05731"
       sodipodi:rx="30.280128"
       sodipodi:ry="39.52597"
       d="m 173.8218,299.05731 c 0,21.82959 -13.55688,39.52597 -30.28013,39.52597 -16.72325,0 -30.28013,-17.69638 -30.28013,-39.52597 0,-21.82959 13.55688,-39.52597 30.28013,-39.52597 16.72325,0 30.28013,17.69638 30.28013,39.52597 z"
       transform="matrix(0.06880636,0,0,0.05291398,383.07163,996.31847)" />
    <path
       sodipodi:type="arc"
       style="fill:#0000e7;fill-opacity:0.8865546;stroke:#000000;stroke-width:1;stroke-miterlimit:4;stroke-opacity:0;stroke-dasharray:none;stroke-dashoffset:0"
       id="path3869-31"
       sodipodi:cx="143.54167"
       sodipodi:cy="299.05731"
       sodipodi:rx="30.280128"
       sodipodi:ry="39.52597"
       d="m 173.8218,299.05731 c 0,21.82959 -13.55688,39.52597 -30.28013,39.52597 -16.72325,0 -30.28013,-17.69638 -30.28013,-39.52597 0,-21.82959 13.55688,-39.52597 30.28013,-39.52597 16.72325,0 30.28013,17.69638 30.28013,39.52597 z"
       transform="matrix(0.06880636,0,0,0.05291398,391.39288,996.31845)" />
    <path
       sodipodi:type="arc"
       style="fill:#0000e7;fill-opacity:0.8865546;stroke:#000000;stroke-width:1;stroke-miterlimit:4;stroke-opacity:0;stroke-dasharray:none;stroke-dashoffset:0"
       id="path3869-42-0"
       sodipodi:cx="143.54167"
       sodipodi:cy="299.05731"
       sodipodi:rx="30.280128"
       sodipodi:ry="39.52597"
       d="m 173.8218,299.05731 c 0,21.82959 -13.55688,39.52597 -30.28013,39.52597 -16.72325,0 -30.28013,-17.69638 -30.28013,-39.52597 0,-21.82959 13.55688,-39.52597 30.28013,-39.52597 16.72325,0 30.28013,17.69638 30.28013,39.52597 z"
       transform="matrix(0.06880636,0,0,0.05291398,669.23041,996.31846)" />
    <path
       sodipodi:type="arc"
       style="fill:#0000e7;fill-opacity:0.8865546;stroke:#000000;stroke-width:1;stroke-miterlimit:4;stroke-opacity:0;stroke-dasharray:none;stroke-dashoffset:0"
       id="path3869-42-0-8"
       sodipodi:cx="143.54167"
       sodipodi:cy="299.05731"
       sodipodi:rx="30.280128"
       sodipodi:ry="39.52597"
       d="m 173.8218,299.05731 c 0,21.82959 -13.55688,39.52597 -30.28013,39.52597 -16.72325,0 -30.28013,-17.69638 -30.28013,-39.52597 0,-21.82959 13.55688,-39.52597 30.28013,-39.52597 16.72325,0 30.28013,17.69638 30.28013,39.52597 z"
       transform="matrix(0.06880636,0,0,0.05291398,410.80916,996.31846)" />
    <path
       sodipodi:type="arc"
       style="fill:#0000e7;fill-opacity:0.8865546;stroke:#000000;stroke-width:1;stroke-miterlimit:4;stroke-opacity:0;stroke-dasharray:none;stroke-dashoffset:0"
       id="path3869-42-0-9"
       sodipodi:cx="143.54167"
       sodipodi:cy="299.05731"
       sodipodi:rx="30.280128"
       sodipodi:ry="39.52597"
       d="m 173.8218,299.05731 c 0,21.82959 -13.55688,39.52597 -30.28013,39.52597 -16.72325,0 -30.28013,-17.69638 -30.28013,-39.52597 0,-21.82959 13.55688,-39.52597 30.28013,-39.52597 16.72325,0 30.28013,17.69638 30.28013,39.52597 z"
       transform="matrix(0.06880636,0,0,0.05291398,421.4419,996.31846)" />
    <path
       sodipodi:type="arc"
       style="fill:#0000e7;fill-opacity:0.8865546;stroke:#000000;stroke-width:1;stroke-miterlimit:4;stroke-opacity:0;stroke-dasharray:none;stroke-dashoffset:0"
       id="path3869-42-0-0"
       sodipodi:cx="143.54167"
       sodipodi:cy="299.05731"
       sodipodi:rx="30.280128"
       sodipodi:ry="39.52597"
       d="m 173.8218,299.05731 c 0,21.82959 -13.55688,39.52597 -30.28013,39.52597 -16.72325,0 -30.28013,-17.69638 -30.28013,-39.52597 0,-21.82959 13.55688,-39.52597 30.28013,-39.52597 16.72325,0 30.28013,17.69638 30.28013,39.52597 z"
       transform="matrix(0.06880636,0,0,0.05291398,432.0746,996.31846)" />
    <path
       sodipodi:type="arc"
       style="fill:#0000e7;fill-opacity:0.8865546;stroke:#000000;stroke-width:1;stroke-miterlimit:4;stroke-opacity:0;stroke-dasharray:none;stroke-dashoffset:0"
       id="path3869-42-0-02"
       sodipodi:cx="143.54167"
       sodipodi:cy="299.05731"
       sodipodi:rx="30.280128"
       sodipodi:ry="39.52597"
       d="m 173.8218,299.05731 c 0,21.82959 -13.55688,39.52597 -30.28013,39.52597 -16.72325,0 -30.28013,-17.69638 -30.28013,-39.52597 0,-21.82959 13.55688,-39.52597 30.28013,-39.52597 16.72325,0 30.28013,17.69638 30.28013,39.52597 z"
       transform="matrix(0.06880636,0,0,0.05291398,443.16961,996.31846)" />
    <path
       sodipodi:type="arc"
       style="fill:#0000e7;fill-opacity:0.8865546;stroke:#000000;stroke-width:1;stroke-miterlimit:4;stroke-opacity:0;stroke-dasharray:none;stroke-dashoffset:0"
       id="path3869-42-0-7"
       sodipodi:cx="143.54167"
       sodipodi:cy="299.05731"
       sodipodi:rx="30.280128"
       sodipodi:ry="39.52597"
       d="m 173.8218,299.05731 c 0,21.82959 -13.55688,39.52597 -30.28013,39.52597 -16.72325,0 -30.28013,-17.69638 -30.28013,-39.52597 0,-21.82959 13.55688,-39.52597 30.28013,-39.52597 16.72325,0 30.28013,17.69638 30.28013,39.52597 z"
       transform="matrix(0.06880636,0,0,0.05291398,454.26462,996.31846)" />
    <path
       sodipodi:type="arc"
       style="fill:#0000e7;fill-opacity:0.8865546;stroke:#000000;stroke-width:1;stroke-miterlimit:4;stroke-opacity:0;stroke-dasharray:none;stroke-dashoffset:0"
       id="path3869-42-0-88"
       sodipodi:cx="143.54167"
       sodipodi:cy="299.05731"
       sodipodi:rx="30.280128"
       sodipodi:ry="39.52597"
       d="m 173.8218,299.05731 c 0,21.82959 -13.55688,39.52597 -30.28013,39.52597 -16.72325,0 -30.28013,-17.69638 -30.28013,-39.52597 0,-21.82959 13.55688,-39.52597 30.28013,-39.52597 16.72325,0 30.28013,17.69638 30.28013,39.52597 z"
       transform="matrix(0.06880636,0,0,0.05291398,466.28421,996.31846)" />
    <path
       sodipodi:type="arc"
       style="fill:#0000e7;fill-opacity:0.8865546;stroke:#000000;stroke-width:1;stroke-miterlimit:4;stroke-opacity:0;stroke-dasharray:none;stroke-dashoffset:0"
       id="path3869-42-0-09"
       sodipodi:cx="143.54167"
       sodipodi:cy="299.05731"
       sodipodi:rx="30.280128"
       sodipodi:ry="39.52597"
       d="m 173.8218,299.05731 c 0,21.82959 -13.55688,39.52597 -30.28013,39.52597 -16.72325,0 -30.28013,-17.69638 -30.28013,-39.52597 0,-21.82959 13.55688,-39.52597 30.28013,-39.52597 16.72325,0 30.28013,17.69638 30.28013,39.52597 z"
       transform="matrix(0.06880636,0,0,0.05291398,478.76609,996.31846)" />
    <path
       sodipodi:type="arc"
       style="fill:#0000e7;fill-opacity:0.8865546;stroke:#000000;stroke-width:1;stroke-miterlimit:4;stroke-opacity:0;stroke-dasharray:none;stroke-dashoffset:0"
       id="path3869-42-0-95"
       sodipodi:cx="143.54167"
       sodipodi:cy="299.05731"
       sodipodi:rx="30.280128"
       sodipodi:ry="39.52597"
       d="m 173.8218,299.05731 c 0,21.82959 -13.55688,39.52597 -30.28013,39.52597 -16.72325,0 -30.28013,-17.69638 -30.28013,-39.52597 0,-21.82959 13.55688,-39.52597 30.28013,-39.52597 16.72325,0 30.28013,17.69638 30.28013,39.52597 z"
       transform="matrix(0.06880636,0,0,0.05291398,503.26757,996.31846)" />
    <path
       sodipodi:type="arc"
       style="fill:#0000e7;fill-opacity:0.8865546;stroke:#000000;stroke-width:1;stroke-miterlimit:4;stroke-opacity:0;stroke-dasharray:none;stroke-dashoffset:0"
       id="path3869-42-0-6"
       sodipodi:cx="143.54167"
       sodipodi:cy="299.05731"
       sodipodi:rx="30.280128"
       sodipodi:ry="39.52597"
       d="m 173.8218,299.05731 c 0,21.82959 -13.55688,39.52597 -30.28013,39.52597 -16.72325,0 -30.28013,-17.69638 -30.28013,-39.52597 0,-21.82959 13.55688,-39.52597 30.28013,-39.52597 16.72325,0 30.28013,17.69638 30.28013,39.52597 z"
       transform="matrix(0.06880636,0,0,0.05291398,526.38218,996.31846)" />
    <path
       sodipodi:type="arc"
       style="fill:#0000e7;fill-opacity:0.8865546;stroke:#000000;stroke-width:1;stroke-miterlimit:4;stroke-opacity:0;stroke-dasharray:none;stroke-dashoffset:0"
       id="path3869-42-0-98"
       sodipodi:cx="143.54167"
       sodipodi:cy="299.05731"
       sodipodi:rx="30.280128"
       sodipodi:ry="39.52597"
       d="m 173.8218,299.05731 c 0,21.82959 -13.55688,39.52597 -30.28013,39.52597 -16.72325,0 -30.28013,-17.69638 -30.28013,-39.52597 0,-21.82959 13.55688,-39.52597 30.28013,-39.52597 16.72325,0 30.28013,17.69638 30.28013,39.52597 z"
       transform="matrix(0.06880636,0,0,0.05291398,549.95908,996.31846)" />
    <path
       sodipodi:type="arc"
       style="fill:#0000e7;fill-opacity:0.8865546;stroke:#000000;stroke-width:1;stroke-miterlimit:4;stroke-opacity:0;stroke-dasharray:none;stroke-dashoffset:0"
       id="path3869-42-0-4"
       sodipodi:cx="143.54167"
       sodipodi:cy="299.05731"
       sodipodi:rx="30.280128"
       sodipodi:ry="39.52597"
       d="m 173.8218,299.05731 c 0,21.82959 -13.55688,39.52597 -30.28013,39.52597 -16.72325,0 -30.28013,-17.69638 -30.28013,-39.52597 0,-21.82959 13.55688,-39.52597 30.28013,-39.52597 16.72325,0 30.28013,17.69638 30.28013,39.52597 z"
       transform="matrix(0.06880636,0,0,0.05291398,573.53596,996.31847)" />
    <path
       sodipodi:type="arc"
       style="fill:#0000e7;fill-opacity:0.8865546;stroke:#000000;stroke-width:1;stroke-miterlimit:4;stroke-opacity:0;stroke-dasharray:none;stroke-dashoffset:0"
       id="path3869-42-0-87"
       sodipodi:cx="143.54167"
       sodipodi:cy="299.05731"
       sodipodi:rx="30.280128"
       sodipodi:ry="39.52597"
       d="m 173.8218,299.05731 c 0,21.82959 -13.55688,39.52597 -30.28013,39.52597 -16.72325,0 -30.28013,-17.69638 -30.28013,-39.52597 0,-21.82959 13.55688,-39.52597 30.28013,-39.52597 16.72325,0 30.28013,17.69638 30.28013,39.52597 z"
       transform="matrix(0.06880636,0,0,0.05291398,597.57514,996.31846)" />
    <path
       sodipodi:type="arc"
       style="fill:#0000e7;fill-opacity:0.8865546;stroke:#000000;stroke-width:1;stroke-miterlimit:4;stroke-opacity:0;stroke-dasharray:none;stroke-dashoffset:0"
       id="path3869-42-0-41"
       sodipodi:cx="143.54167"
       sodipodi:cy="299.05731"
       sodipodi:rx="30.280128"
       sodipodi:ry="39.52597"
       d="m 173.8218,299.05731 c 0,21.82959 -13.55688,39.52597 -30.28013,39.52597 -16.72325,0 -30.28013,-17.69638 -30.28013,-39.52597 0,-21.82959 13.55688,-39.52597 30.28013,-39.52597 16.72325,0 30.28013,17.69638 30.28013,39.52597 z"
       transform="matrix(0.06880636,0,0,0.05291398,622.53892,996.31846)" />
    <path
       sodipodi:type="arc"
       style="fill:#0000e7;fill-opacity:0.8865546;stroke:#000000;stroke-width:1;stroke-miterlimit:4;stroke-opacity:0;stroke-dasharray:none;stroke-dashoffset:0"
       id="path3869-42-0-3"
       sodipodi:cx="143.54167"
       sodipodi:cy="299.05731"
       sodipodi:rx="30.280128"
       sodipodi:ry="39.52597"
       d="m 173.8218,299.05731 c 0,21.82959 -13.55688,39.52597 -30.28013,39.52597 -16.72325,0 -30.28013,-17.69638 -30.28013,-39.52597 0,-21.82959 13.55688,-39.52597 30.28013,-39.52597 16.72325,0 30.28013,17.69638 30.28013,39.52597 z"
       transform="matrix(0.06880636,0,0,0.05291398,645.65352,996.31846)" />
    <path
       style="fill:none;stroke:#000000;stroke-width:1.03697336px;stroke-linecap:butt;stroke-linejoin:miter;stroke-opacity:1"
       d="m 373.43496,1004.0359 c 0,16.4286 0,16.4286 0,16.4286"
       id="path3776-4"
       inkscape:connector-curvature="0" />
    <path
       style="fill:none;stroke:#000000;stroke-width:0.89957553px;stroke-linecap:butt;stroke-linejoin:miter;stroke-opacity:1"
       d="m 337.60418,1005.4605 c 0,12.7745 0,12.7745 0,12.7745"
       id="path3778-12"
       inkscape:connector-curvature="0" />
    <path
       style="fill:none;stroke:#000000;stroke-width:0.85455763px;stroke-linecap:butt;stroke-linejoin:miter;stroke-opacity:1"
       d="m 259.0587,1005.0421 c 0,13.6239 0,13.6239 0,13.6239 l 0,0"
       id="path3782-4"
       inkscape:connector-curvature="0" />
    <path
       style="fill:none;stroke:#000000;stroke-width:0.84925449px;stroke-linecap:butt;stroke-linejoin:miter;stroke-opacity:1"
       d="m 68.828247,1005.4905 c 0,12.9378 0,12.9378 0,12.9378 l 0,0"
       id="path3784-8"
       inkscape:connector-curvature="0" />
    <path
       style="fill:none;stroke:#000000;stroke-width:1.03494525px;stroke-linecap:butt;stroke-linejoin:miter;stroke-opacity:1"
       d="m 373.51628,1003.9824 c 0,16.4286 0,16.4286 0,16.4286"
       id="path3776-6-5"
       inkscape:connector-curvature="0" />
    <path
       sodipodi:type="arc"
       style="fill:#0000e7;fill-opacity:0.8865546;stroke:#000000;stroke-width:1;stroke-miterlimit:4;stroke-opacity:0;stroke-dasharray:none;stroke-dashoffset:0"
       id="path3869-44"
       sodipodi:cx="143.54167"
       sodipodi:cy="299.05731"
       sodipodi:rx="30.280128"
       sodipodi:ry="39.52597"
       d="m 173.8218,299.05731 c 0,21.82959 -13.55688,39.52597 -30.28013,39.52597 -16.72325,0 -30.28013,-17.69638 -30.28013,-39.52597 0,-21.82959 13.55688,-39.52597 30.28013,-39.52597 16.72325,0 30.28013,17.69638 30.28013,39.52597 z"
       transform="matrix(-0.06849442,0,0,0.05291398,347.15491,996.55817)" />
    <path
       sodipodi:type="arc"
       style="fill:#0000e7;fill-opacity:0.8865546;stroke:#000000;stroke-width:1;stroke-miterlimit:4;stroke-opacity:0;stroke-dasharray:none;stroke-dashoffset:0"
       id="path3869-4-4"
       sodipodi:cx="143.54167"
       sodipodi:cy="299.05731"
       sodipodi:rx="30.280128"
       sodipodi:ry="39.52597"
       d="m 173.8218,299.05731 c 0,21.82959 -13.55688,39.52597 -30.28013,39.52597 -16.72325,0 -30.28013,-17.69638 -30.28013,-39.52597 0,-21.82959 13.55688,-39.52597 30.28013,-39.52597 16.72325,0 30.28013,17.69638 30.28013,39.52597 z"
       transform="matrix(-0.06849442,0,0,0.05291398,380.97932,996.32704)" />
    <path
       sodipodi:type="arc"
       style="fill:#0000e7;fill-opacity:0.8865546;stroke:#000000;stroke-width:1;stroke-miterlimit:4;stroke-opacity:0;stroke-dasharray:none;stroke-dashoffset:0"
       id="path3869-3-7"
       sodipodi:cx="143.54167"
       sodipodi:cy="299.05731"
       sodipodi:rx="30.280128"
       sodipodi:ry="39.52597"
       d="m 173.8218,299.05731 c 0,21.82959 -13.55688,39.52597 -30.28013,39.52597 -16.72325,0 -30.28013,-17.69638 -30.28013,-39.52597 0,-21.82959 13.55688,-39.52597 30.28013,-39.52597 16.72325,0 30.28013,17.69638 30.28013,39.52597 z"
       transform="matrix(-0.06849442,0,0,0.05291398,376.37737,996.32703)" />
    <path
       sodipodi:type="arc"
       style="fill:#0000e7;fill-opacity:0.8865546;stroke:#000000;stroke-width:1;stroke-miterlimit:4;stroke-opacity:0;stroke-dasharray:none;stroke-dashoffset:0"
       id="path3869-30-9"
       sodipodi:cx="143.54167"
       sodipodi:cy="299.05731"
       sodipodi:rx="30.280128"
       sodipodi:ry="39.52597"
       d="m 173.8218,299.05731 c 0,21.82959 -13.55688,39.52597 -30.28013,39.52597 -16.72325,0 -30.28013,-17.69638 -30.28013,-39.52597 0,-21.82959 13.55688,-39.52597 30.28013,-39.52597 16.72325,0 30.28013,17.69638 30.28013,39.52597 z"
       transform="matrix(-0.06849442,0,0,0.05291398,371.7754,996.32703)" />
    <path
       sodipodi:type="arc"
       style="fill:#0000e7;fill-opacity:0.8865546;stroke:#000000;stroke-width:1;stroke-miterlimit:4;stroke-opacity:0;stroke-dasharray:none;stroke-dashoffset:0"
       id="path3869-8-4"
       sodipodi:cx="143.54167"
       sodipodi:cy="299.05731"
       sodipodi:rx="30.280128"
       sodipodi:ry="39.52597"
       d="m 173.8218,299.05731 c 0,21.82959 -13.55688,39.52597 -30.28013,39.52597 -16.72325,0 -30.28013,-17.69638 -30.28013,-39.52597 0,-21.82959 13.55688,-39.52597 30.28013,-39.52597 16.72325,0 30.28013,17.69638 30.28013,39.52597 z"
       transform="matrix(-0.06849442,0,0,0.05291398,363.95208,996.32704)" />
    <path
       sodipodi:type="arc"
       style="fill:#0000e7;fill-opacity:0.8865546;stroke:#000000;stroke-width:1;stroke-miterlimit:4;stroke-opacity:0;stroke-dasharray:none;stroke-dashoffset:0"
       id="path3869-31-9"
       sodipodi:cx="143.54167"
       sodipodi:cy="299.05731"
       sodipodi:rx="30.280128"
       sodipodi:ry="39.52597"
       d="m 173.8218,299.05731 c 0,21.82959 -13.55688,39.52597 -30.28013,39.52597 -16.72325,0 -30.28013,-17.69638 -30.28013,-39.52597 0,-21.82959 13.55688,-39.52597 30.28013,-39.52597 16.72325,0 30.28013,17.69638 30.28013,39.52597 z"
       transform="matrix(-0.06849442,0,0,0.05291398,355.66855,996.32702)" />
    <path
       sodipodi:type="arc"
       style="fill:#0000e7;fill-opacity:0.8865546;stroke:#000000;stroke-width:1;stroke-miterlimit:4;stroke-opacity:0;stroke-dasharray:none;stroke-dashoffset:0"
       id="path3869-42-0-91"
       sodipodi:cx="143.54167"
       sodipodi:cy="299.05731"
       sodipodi:rx="30.280128"
       sodipodi:ry="39.52597"
       d="m 173.8218,299.05731 c 0,21.82959 -13.55688,39.52597 -30.28013,39.52597 -16.72325,0 -30.28013,-17.69638 -30.28013,-39.52597 0,-21.82959 13.55688,-39.52597 30.28013,-39.52597 16.72325,0 30.28013,17.69638 30.28013,39.52597 z"
       transform="matrix(-0.06849442,0,0,0.05291398,79.09063,996.32703)" />
    <path
       sodipodi:type="arc"
       style="fill:#0000e7;fill-opacity:0.8865546;stroke:#000000;stroke-width:1;stroke-miterlimit:4;stroke-opacity:0;stroke-dasharray:none;stroke-dashoffset:0"
       id="path3869-42-0-8-9"
       sodipodi:cx="143.54167"
       sodipodi:cy="299.05731"
       sodipodi:rx="30.280128"
       sodipodi:ry="39.52597"
       d="m 173.8218,299.05731 c 0,21.82959 -13.55688,39.52597 -30.28013,39.52597 -16.72325,0 -30.28013,-17.69638 -30.28013,-39.52597 0,-21.82959 13.55688,-39.52597 30.28013,-39.52597 16.72325,0 30.28013,17.69638 30.28013,39.52597 z"
       transform="matrix(-0.06849442,0,0,0.05291398,336.3403,996.32703)" />
    <path
       sodipodi:type="arc"
       style="fill:#0000e7;fill-opacity:0.8865546;stroke:#000000;stroke-width:1;stroke-miterlimit:4;stroke-opacity:0;stroke-dasharray:none;stroke-dashoffset:0"
       id="path3869-42-0-9-8"
       sodipodi:cx="143.54167"
       sodipodi:cy="299.05731"
       sodipodi:rx="30.280128"
       sodipodi:ry="39.52597"
       d="m 173.8218,299.05731 c 0,21.82959 -13.55688,39.52597 -30.28013,39.52597 -16.72325,0 -30.28013,-17.69638 -30.28013,-39.52597 0,-21.82959 13.55688,-39.52597 30.28013,-39.52597 16.72325,0 30.28013,17.69638 30.28013,39.52597 z"
       transform="matrix(-0.06849442,0,0,0.05291398,325.75576,996.32703)" />
    <path
       sodipodi:type="arc"
       style="fill:#0000e7;fill-opacity:0.8865546;stroke:#000000;stroke-width:1;stroke-miterlimit:4;stroke-opacity:0;stroke-dasharray:none;stroke-dashoffset:0"
       id="path3869-42-0-0-4"
       sodipodi:cx="143.54167"
       sodipodi:cy="299.05731"
       sodipodi:rx="30.280128"
       sodipodi:ry="39.52597"
       d="m 173.8218,299.05731 c 0,21.82959 -13.55688,39.52597 -30.28013,39.52597 -16.72325,0 -30.28013,-17.69638 -30.28013,-39.52597 0,-21.82959 13.55688,-39.52597 30.28013,-39.52597 16.72325,0 30.28013,17.69638 30.28013,39.52597 z"
       transform="matrix(-0.06849442,0,0,0.05291398,315.17127,996.32703)" />
    <path
       sodipodi:type="arc"
       style="fill:#0000e7;fill-opacity:0.8865546;stroke:#000000;stroke-width:1;stroke-miterlimit:4;stroke-opacity:0;stroke-dasharray:none;stroke-dashoffset:0"
       id="path3869-42-0-02-5"
       sodipodi:cx="143.54167"
       sodipodi:cy="299.05731"
       sodipodi:rx="30.280128"
       sodipodi:ry="39.52597"
       d="m 173.8218,299.05731 c 0,21.82959 -13.55688,39.52597 -30.28013,39.52597 -16.72325,0 -30.28013,-17.69638 -30.28013,-39.52597 0,-21.82959 13.55688,-39.52597 30.28013,-39.52597 16.72325,0 30.28013,17.69638 30.28013,39.52597 z"
       transform="matrix(-0.06849442,0,0,0.05291398,304.12656,996.32703)" />
    <path
       sodipodi:type="arc"
       style="fill:#0000e7;fill-opacity:0.8865546;stroke:#000000;stroke-width:1;stroke-miterlimit:4;stroke-opacity:0;stroke-dasharray:none;stroke-dashoffset:0"
       id="path3869-42-0-7-7"
       sodipodi:cx="143.54167"
       sodipodi:cy="299.05731"
       sodipodi:rx="30.280128"
       sodipodi:ry="39.52597"
       d="m 173.8218,299.05731 c 0,21.82959 -13.55688,39.52597 -30.28013,39.52597 -16.72325,0 -30.28013,-17.69638 -30.28013,-39.52597 0,-21.82959 13.55688,-39.52597 30.28013,-39.52597 16.72325,0 30.28013,17.69638 30.28013,39.52597 z"
       transform="matrix(-0.06849442,0,0,0.05291398,293.08185,996.32703)" />
    <path
       sodipodi:type="arc"
       style="fill:#0000e7;fill-opacity:0.8865546;stroke:#000000;stroke-width:1;stroke-miterlimit:4;stroke-opacity:0;stroke-dasharray:none;stroke-dashoffset:0"
       id="path3869-42-0-88-1"
       sodipodi:cx="143.54167"
       sodipodi:cy="299.05731"
       sodipodi:rx="30.280128"
       sodipodi:ry="39.52597"
       d="m 173.8218,299.05731 c 0,21.82959 -13.55688,39.52597 -30.28013,39.52597 -16.72325,0 -30.28013,-17.69638 -30.28013,-39.52597 0,-21.82959 13.55688,-39.52597 30.28013,-39.52597 16.72325,0 30.28013,17.69638 30.28013,39.52597 z"
       transform="matrix(-0.06849442,0,0,0.05291398,281.11675,996.32703)" />
    <path
       sodipodi:type="arc"
       style="fill:#0000e7;fill-opacity:0.8865546;stroke:#000000;stroke-width:1;stroke-miterlimit:4;stroke-opacity:0;stroke-dasharray:none;stroke-dashoffset:0"
       id="path3869-42-0-09-0"
       sodipodi:cx="143.54167"
       sodipodi:cy="299.05731"
       sodipodi:rx="30.280128"
       sodipodi:ry="39.52597"
       d="m 173.8218,299.05731 c 0,21.82959 -13.55688,39.52597 -30.28013,39.52597 -16.72325,0 -30.28013,-17.69638 -30.28013,-39.52597 0,-21.82959 13.55688,-39.52597 30.28013,-39.52597 16.72325,0 30.28013,17.69638 30.28013,39.52597 z"
       transform="matrix(-0.06849442,0,0,0.05291398,268.69146,996.32703)" />
    <path
       sodipodi:type="arc"
       style="fill:#0000e7;fill-opacity:0.8865546;stroke:#000000;stroke-width:1;stroke-miterlimit:4;stroke-opacity:0;stroke-dasharray:none;stroke-dashoffset:0"
       id="path3869-42-0-95-0"
       sodipodi:cx="143.54167"
       sodipodi:cy="299.05731"
       sodipodi:rx="30.280128"
       sodipodi:ry="39.52597"
       d="m 173.8218,299.05731 c 0,21.82959 -13.55688,39.52597 -30.28013,39.52597 -16.72325,0 -30.28013,-17.69638 -30.28013,-39.52597 0,-21.82959 13.55688,-39.52597 30.28013,-39.52597 16.72325,0 30.28013,17.69638 30.28013,39.52597 z"
       transform="matrix(-0.06849442,0,0,0.05291398,244.30106,996.32703)" />
    <path
       sodipodi:type="arc"
       style="fill:#0000e7;fill-opacity:0.8865546;stroke:#000000;stroke-width:1;stroke-miterlimit:4;stroke-opacity:0;stroke-dasharray:none;stroke-dashoffset:0"
       id="path3869-42-0-6-7"
       sodipodi:cx="143.54167"
       sodipodi:cy="299.05731"
       sodipodi:rx="30.280128"
       sodipodi:ry="39.52597"
       d="m 173.8218,299.05731 c 0,21.82959 -13.55688,39.52597 -30.28013,39.52597 -16.72325,0 -30.28013,-17.69638 -30.28013,-39.52597 0,-21.82959 13.55688,-39.52597 30.28013,-39.52597 16.72325,0 30.28013,17.69638 30.28013,39.52597 z"
       transform="matrix(-0.06849442,0,0,0.05291398,221.29124,996.32703)" />
    <path
       sodipodi:type="arc"
       style="fill:#0000e7;fill-opacity:0.8865546;stroke:#000000;stroke-width:1;stroke-miterlimit:4;stroke-opacity:0;stroke-dasharray:none;stroke-dashoffset:0"
       id="path3869-42-0-98-1"
       sodipodi:cx="143.54167"
       sodipodi:cy="299.05731"
       sodipodi:rx="30.280128"
       sodipodi:ry="39.52597"
       d="m 173.8218,299.05731 c 0,21.82959 -13.55688,39.52597 -30.28013,39.52597 -16.72325,0 -30.28013,-17.69638 -30.28013,-39.52597 0,-21.82959 13.55688,-39.52597 30.28013,-39.52597 16.72325,0 30.28013,17.69638 30.28013,39.52597 z"
       transform="matrix(-0.06849442,0,0,0.05291398,197.82123,996.32703)" />
    <path
       sodipodi:type="arc"
       style="fill:#0000e7;fill-opacity:0.8865546;stroke:#000000;stroke-width:1;stroke-miterlimit:4;stroke-opacity:0;stroke-dasharray:none;stroke-dashoffset:0"
       id="path3869-42-0-4-3"
       sodipodi:cx="143.54167"
       sodipodi:cy="299.05731"
       sodipodi:rx="30.280128"
       sodipodi:ry="39.52597"
       d="m 173.8218,299.05731 c 0,21.82959 -13.55688,39.52597 -30.28013,39.52597 -16.72325,0 -30.28013,-17.69638 -30.28013,-39.52597 0,-21.82959 13.55688,-39.52597 30.28013,-39.52597 16.72325,0 30.28013,17.69638 30.28013,39.52597 z"
       transform="matrix(-0.06849442,0,0,0.05291398,174.35124,996.32704)" />
    <path
       sodipodi:type="arc"
       style="fill:#0000e7;fill-opacity:0.8865546;stroke:#000000;stroke-width:1;stroke-miterlimit:4;stroke-opacity:0;stroke-dasharray:none;stroke-dashoffset:0"
       id="path3869-42-0-87-6"
       sodipodi:cx="143.54167"
       sodipodi:cy="299.05731"
       sodipodi:rx="30.280128"
       sodipodi:ry="39.52597"
       d="m 173.8218,299.05731 c 0,21.82959 -13.55688,39.52597 -30.28013,39.52597 -16.72325,0 -30.28013,-17.69638 -30.28013,-39.52597 0,-21.82959 13.55688,-39.52597 30.28013,-39.52597 16.72325,0 30.28013,17.69638 30.28013,39.52597 z"
       transform="matrix(-0.06849442,0,0,0.05291398,150.42104,996.32703)" />
    <path
       sodipodi:type="arc"
       style="fill:#0000e7;fill-opacity:0.8865546;stroke:#000000;stroke-width:1;stroke-miterlimit:4;stroke-opacity:0;stroke-dasharray:none;stroke-dashoffset:0"
       id="path3869-42-0-41-9"
       sodipodi:cx="143.54167"
       sodipodi:cy="299.05731"
       sodipodi:rx="30.280128"
       sodipodi:ry="39.52597"
       d="m 173.8218,299.05731 c 0,21.82959 -13.55688,39.52597 -30.28013,39.52597 -16.72325,0 -30.28013,-17.69638 -30.28013,-39.52597 0,-21.82959 13.55688,-39.52597 30.28013,-39.52597 16.72325,0 30.28013,17.69638 30.28013,39.52597 z"
       transform="matrix(-0.06849442,0,0,0.05291398,125.57044,996.32703)" />
    <path
       sodipodi:type="arc"
       style="fill:#0000e7;fill-opacity:0.8865546;stroke:#000000;stroke-width:1;stroke-miterlimit:4;stroke-opacity:0;stroke-dasharray:none;stroke-dashoffset:0"
       id="path3869-42-0-3-4"
       sodipodi:cx="143.54167"
       sodipodi:cy="299.05731"
       sodipodi:rx="30.280128"
       sodipodi:ry="39.52597"
       d="m 173.8218,299.05731 c 0,21.82959 -13.55688,39.52597 -30.28013,39.52597 -16.72325,0 -30.28013,-17.69638 -30.28013,-39.52597 0,-21.82959 13.55688,-39.52597 30.28013,-39.52597 16.72325,0 30.28013,17.69638 30.28013,39.52597 z"
       transform="matrix(-0.06849442,0,0,0.05291398,102.56063,996.32703)" />
    <path
       sodipodi:type="arc"
       style="fill:#0000e7;fill-opacity:0.8865546;stroke:#000000;stroke-width:1;stroke-miterlimit:4;stroke-opacity:0;stroke-dasharray:none;stroke-dashoffset:0"
       id="path3869-4-0"
       sodipodi:cx="143.54167"
       sodipodi:cy="299.05731"
       sodipodi:rx="30.280128"
       sodipodi:ry="39.52597"
       d="m 173.8218,299.05731 c 0,21.82959 -13.55688,39.52597 -30.28013,39.52597 -16.72325,0 -30.28013,-17.69638 -30.28013,-39.52597 0,-21.82959 13.55688,-39.52597 30.28013,-39.52597 16.72325,0 30.28013,17.69638 30.28013,39.52597 z"
       transform="matrix(0.06880636,0,0,0.05291398,365.90171,996.39967)" />
  </g>
</svg>
